<svg id="visual" viewBox="0 0 900 600" width="900" height="600" xmlns="http://www.w3.org/2000/svg" xmlns:xlink="http://www.w3.org/1999/xlink" version="1.1"><path d="M0 440L25 431C50 422 100 404 150 399.2C200 394.3 250 402.7 300 395.5C350 388.3 400 365.7 450 361.7C500 357.7 550 372.3 600 388C650 403.7 700 420.3 750 427.3C800 434.3 850 431.7 875 430.3L900 429L900 601L875 601C850 601 800 601 750 601C700 601 650 601 600 601C550 601 500 601 450 601C400 601 350 601 300 601C250 601 200 601 150 601C100 601 50 601 25 601L0 601Z" fill="#c35664"></path><path d="M0 381L25 392.2C50 403.3 100 425.7 150 436.2C200 446.7 250 445.3 300 435.7C350 426 400 408 450 399.2C500 390.3 550 390.7 600 400.2C650 409.7 700 428.3 750 436.7C800 445 850 443 875 442L900 441L900 601L875 601C850 601 800 601 750 601C700 601 650 601 600 601C550 601 500 601 450 601C400 601 350 601 300 601C250 601 200 601 150 601C100 601 50 601 25 601L0 601Z" fill="#b9676e"></path><path d="M0 472L25 467C50 462 100 452 150 446.2C200 440.3 250 438.7 300 438.5C350 438.3 400 439.7 450 442.8C500 446 550 451 600 459.5C650 468 700 480 750 475.7C800 471.3 850 450.7 875 440.3L900 430L900 601L875 601C850 601 800 601 750 601C700 601 650 601 600 601C550 601 500 601 450 601C400 601 350 601 300 601C250 601 200 601 150 601C100 601 50 601 25 601L0 601Z" fill="#ad7579"></path><path d="M0 468L25 471.2C50 474.3 100 480.7 150 485.7C200 490.7 250 494.3 300 500.3C350 506.3 400 514.7 450 515.7C500 516.7 550 510.3 600 503C650 495.7 700 487.3 750 491.7C800 496 850 513 875 521.5L900 530L900 601L875 601C850 601 800 601 750 601C700 601 650 601 600 601C550 601 500 601 450 601C400 601 350 601 300 601C250 601 200 601 150 601C100 601 50 601 25 601L0 601Z" fill="#9f8283"></path><path d="M0 559L25 554.8C50 550.7 100 542.3 150 535.3C200 528.3 250 522.7 300 523.8C350 525 400 533 450 539.5C500 546 550 551 600 551.2C650 551.3 700 546.7 750 547.3C800 548 850 554 875 557L900 560L900 601L875 601C850 601 800 601 750 601C700 601 650 601 600 601C550 601 500 601 450 601C400 601 350 601 300 601C250 601 200 601 150 601C100 601 50 601 25 601L0 601Z" fill="#8e8e8e"></path></svg>